<?xml version="1.0" standalone="no"?>
<!DOCTYPE svg PUBLIC "-//W3C//DTD SVG 20010904//EN"
 "http://www.w3.org/TR/2001/REC-SVG-20010904/DTD/svg10.dtd">
<svg version="1.0" xmlns="http://www.w3.org/2000/svg"
 width="512.000000pt" height="512.000000pt" viewBox="0 0 512.000000 512.000000"
 preserveAspectRatio="xMidYMid meet">
<metadata>
Created by potrace 1.11, written by Peter Selinger 2001-2013
</metadata>
<g transform="translate(0.000000,512.000000) scale(0.100000,-0.100000)"
fill="#000000" stroke="none">
<path d="M2282 4710 c-101 -9 -126 -15 -118 -29 15 -23 -79 -51 -173 -51 -72
0 -91 -6 -91 -31 0 -21 -79 -49 -139 -49 -43 0 -56 -8 -65 -37 -8 -24 -23 -31
-82 -39 -60 -7 -72 -13 -76 -37 -2 -16 -15 -26 -52 -38 -33 -11 -54 -25 -63
-42 -9 -17 -27 -30 -53 -37 -22 -6 -39 -14 -39 -18 5 -30 -3 -43 -23 -41 -13
1 -40 -5 -60 -13 -28 -13 -37 -23 -40 -45 -2 -21 -12 -32 -41 -46 -21 -9 -42
-28 -46 -41 -5 -12 -23 -29 -40 -36 -32 -13 -42 -42 -18 -57 6 -4 39 -11 72
-15 33 -5 87 -13 120 -18 147 -24 146 -24 200 12 38 25 60 33 95 33 25 0 50 3
56 7 6 4 14 36 18 72 10 96 21 120 81 165 79 58 87 61 179 68 l84 6 18 -29
c37 -59 65 -53 62 12 -1 44 14 74 37 74 8 0 27 -11 43 -25 36 -30 92 -34 114
-7 8 9 20 36 27 59 6 23 17 46 24 50 12 8 51 13 227 33 112 12 253 33 335 51
66 13 121 4 170 -29 36 -25 50 -27 150 -30 113 -4 176 5 182 25 2 6 -9 14 -25
18 -30 6 -71 41 -63 54 9 15 -50 31 -122 31 -78 0 -144 20 -132 40 3 5 -11 14
-32 21 -46 14 -565 21 -701 9z"/>
<path d="M2737 4240 c-30 -24 -44 -74 -27 -95 7 -9 29 -15 51 -15 27 0 39 -5
44 -17 9 -29 54 -55 101 -61 33 -3 44 -9 44 -22 0 -21 31 -50 54 -50 11 0 22
-12 29 -30 21 -55 77 -28 77 38 0 20 3 60 6 88 4 36 2 53 -8 61 -17 15 -104
19 -189 8 -75 -9 -78 -7 -113 64 -25 54 -35 58 -69 31z"/>
<path d="M2015 4140 c-3 -5 0 -10 8 -10 8 0 26 -9 41 -21 l26 -21 32 21 32 20
-27 10 c-36 14 -104 14 -112 1z"/>
<path d="M3966 4074 c-3 -9 -6 -38 -6 -65 0 -52 -4 -58 -75 -114 -16 -13 -27
-26 -24 -29 16 -16 121 -27 154 -16 27 9 40 8 63 -4 35 -18 42 -33 42 -92 0
-31 6 -50 21 -65 21 -21 20 -49 -2 -49 -7 0 -18 8 -25 18 -11 14 -30 17 -129
17 -112 0 -118 1 -137 24 -12 15 -17 33 -14 45 3 12 9 38 12 59 l7 37 -44 0
c-41 0 -98 -15 -126 -33 -7 -5 -13 -19 -13 -33 0 -21 -5 -24 -34 -24 -19 0
-41 -3 -50 -6 -26 -10 -19 -53 14 -82 110 -99 190 -187 190 -208 0 -15 16 -37
49 -64 34 -29 52 -53 60 -83 7 -23 27 -67 45 -97 18 -30 36 -62 38 -70 4 -10
8 -7 12 10 9 34 45 58 58 38 12 -19 2 -85 -19 -124 -8 -14 -9 -33 -3 -60 5
-21 10 -59 10 -84 0 -24 7 -64 16 -87 l17 -43 73 0 c100 0 120 -9 135 -62 6
-24 12 -58 13 -77 1 -32 -1 -34 -64 -55 -57 -19 -68 -27 -86 -61 -13 -27 -30
-43 -52 -50 -42 -14 -45 -18 -31 -48 9 -20 8 -35 -5 -73 -9 -26 -16 -66 -16
-88 0 -27 -8 -54 -25 -77 -16 -25 -24 -49 -23 -75 1 -28 -7 -53 -30 -88 -17
-26 -34 -62 -38 -78 -3 -17 -26 -50 -50 -75 -24 -24 -50 -59 -58 -77 -8 -19
-35 -53 -60 -76 -43 -40 -46 -46 -40 -78 6 -31 3 -38 -22 -58 -23 -19 -29 -33
-34 -76 -4 -45 -8 -53 -25 -51 -46 4 -55 -12 -55 -102 0 -95 -10 -130 -39
-140 -11 -3 -28 -21 -39 -39 -13 -22 -30 -35 -51 -39 -21 -5 -34 -15 -41 -32
-5 -14 -21 -30 -35 -37 -25 -11 -28 -17 -39 -87 -6 -34 -80 -116 -138 -154
-20 -12 -30 -29 -34 -57 -8 -46 -17 -55 -81 -80 -52 -20 -74 -43 -57 -60 20
-20 143 7 206 46 43 26 75 37 120 42 55 6 63 10 66 30 4 29 29 41 100 50 49 6
57 10 60 30 4 25 22 37 74 47 28 5 39 14 48 36 11 25 18 29 49 29 43 0 81 23
81 49 0 22 16 36 52 45 17 4 34 18 43 36 8 16 27 33 41 36 16 4 30 19 39 40 9
22 23 36 40 40 16 4 31 18 39 39 9 20 23 35 39 39 20 5 28 15 33 41 7 39 19
52 53 57 13 1 27 10 31 18 4 8 12 25 18 37 7 13 8 24 2 28 -16 10 1 35 26 35
19 0 24 7 29 38 8 50 18 66 43 70 32 5 43 26 44 81 0 52 16 78 42 68 22 -9 40
36 33 84 -7 52 15 114 38 105 24 -9 38 32 45 134 8 103 25 164 40 140 9 -15
24 32 34 110 7 57 -9 539 -19 562 -4 10 -16 20 -26 23 -33 11 -39 46 -22 119
13 59 13 73 -1 135 -9 39 -16 94 -16 123 0 60 -10 81 -33 73 -19 -8 -37 22
-37 63 0 40 -20 55 -54 42 -32 -12 -32 -20 -1 -66 36 -53 35 -116 -3 -153 -46
-47 -191 -52 -208 -7 -3 8 -18 19 -34 26 -32 13 -36 20 -45 83 -4 26 -13 52
-21 58 -39 32 2 62 41 31 45 -35 76 -12 68 49 -8 53 15 77 80 85 61 8 87 32
87 79 0 30 -5 37 -34 49 -33 14 -35 18 -38 67 -3 52 -4 54 -58 79 -8 4 -19 22
-24 39 -6 20 -20 38 -38 47 -19 10 -31 25 -35 45 -4 22 -15 34 -39 44 -21 9
-34 21 -34 32 0 30 -21 43 -71 43 -33 0 -49 -5 -53 -16z"/>
<path d="M1740 3980 c0 -5 7 -10 15 -10 8 0 15 5 15 10 0 6 -7 10 -15 10 -8 0
-15 -4 -15 -10z"/>
<path d="M725 3571 c-3 -6 -7 -30 -9 -54 -3 -51 -12 -69 -34 -65 -28 6 -40
-28 -28 -74 10 -36 8 -45 -15 -87 -15 -25 -31 -46 -37 -46 -21 0 -26 -18 -33
-123 -24 -337 -29 -370 -49 -357 -15 10 -21 -35 -18 -140 2 -72 6 -99 15 -98
24 5 31 -35 38 -217 7 -200 15 -245 45 -253 26 -7 40 -46 46 -132 7 -80 8 -85
34 -85 27 0 34 -17 40 -89 4 -48 9 -66 23 -72 9 -5 25 -13 35 -18 12 -6 18
-23 20 -62 3 -57 15 -81 36 -73 18 7 46 -23 46 -49 0 -30 11 -44 43 -56 19 -7
27 -18 27 -34 0 -29 19 -54 45 -59 12 -2 20 -11 20 -24 1 -29 27 -66 95 -133
56 -54 81 -71 124 -85 11 -4 16 -12 12 -21 -6 -17 22 -35 53 -35 11 0 28 -12
38 -28 22 -34 33 -42 60 -42 22 0 56 -37 47 -51 -9 -15 41 -39 82 -39 42 0 67
-17 62 -41 -5 -19 42 -39 93 -39 44 0 81 -21 66 -37 -18 -17 20 -33 77 -33 56
0 65 -3 90 -29 31 -32 42 -36 140 -50 107 -15 144 -52 90 -88 -22 -14 -64 -18
-247 -25 -121 -4 -223 -10 -225 -13 -3 -3 -2 -8 2 -12 8 -8 1266 -13 1529 -5
103 3 187 8 187 12 0 16 -78 21 -323 22 -138 0 -262 4 -275 9 -41 16 -54 70
-50 199 3 95 8 122 26 155 20 37 22 53 22 212 0 135 -3 173 -13 173 -7 0 -19
-16 -26 -35 -14 -40 -4 -39 -229 -36 -106 1 -142 5 -182 21 -28 11 -59 20 -70
20 -26 0 -166 57 -209 86 -20 13 -54 30 -76 37 -97 34 -180 100 -333 260 -29
31 -64 64 -78 74 -28 21 -59 73 -150 253 -32 63 -68 131 -79 150 -35 56 -64
143 -58 173 3 16 -3 47 -15 75 -16 38 -33 157 -34 242 -1 67 21 220 35 241 12
17 16 43 15 76 -2 41 5 65 35 126 21 42 37 90 37 109 0 44 22 74 60 81 38 8
39 33 1 42 -35 7 -45 37 -35 101 6 41 5 45 -25 61 -17 10 -31 23 -31 30 0 48
-135 103 -211 87 -34 -7 -49 -18 -74 -54 -29 -41 -36 -46 -85 -52 -43 -5 -57
-12 -77 -37 -19 -24 -32 -31 -58 -31 -61 0 -74 53 -20 80 17 9 36 19 43 23 21
14 -4 44 -56 69 -26 12 -50 24 -54 26 -3 1 -9 -2 -13 -7z m435 -2421 c0 -5 -2
-10 -4 -10 -3 0 -8 5 -11 10 -3 6 -1 10 4 10 6 0 11 -4 11 -10z"/>
<path d="M4046 2672 c-3 -6 -1 -14 5 -17 15 -10 25 3 12 16 -7 7 -13 7 -17 1z"/>
</g>
</svg>
